<svg width="504" height="432" viewBox="0 0 504 432" xmlns="http://www.w3.org/2000/svg" shape-rendering="crispEdges">
<rect x="240" y="0" width="24" height="24" fill="rgb(193,219,255)" fill-opacity="0.898"/>
<rect x="216" y="24" width="24" height="24" fill="rgb(209,227,255)" fill-opacity="0.8"/>
<rect x="240" y="24" width="24" height="24" fill="rgb(180,211,255)"/>
<rect x="264" y="24" width="24" height="24" fill="rgb(228,238,255)" fill-opacity="0.702"/>
<rect x="216" y="48" width="24" height="24" fill="rgb(180,211,255)"/>
<rect x="240" y="48" width="24" height="24" fill="rgb(180,211,255)"/>
<rect x="264" y="48" width="24" height="24" fill="rgb(193,219,255)" fill-opacity="0.898"/>
<rect x="192" y="72" width="24" height="24" fill="rgb(209,227,255)" fill-opacity="0.8"/>
<rect x="216" y="72" width="24" height="24" fill="rgb(180,211,255)"/>
<rect x="240" y="72" width="24" height="24" fill="rgb(180,211,255)"/>
<rect x="264" y="72" width="24" height="24" fill="rgb(180,211,255)"/>
<rect x="288" y="72" width="24" height="24" fill="rgb(209,227,255)" fill-opacity="0.8"/>
<rect x="168" y="96" width="24" height="24" fill="rgb(209,227,255)" fill-opacity="0.8"/>
<rect x="192" y="96" width="24" height="24" fill="rgb(180,211,255)"/>
<rect x="216" y="96" width="24" height="24" fill="rgb(180,211,255)"/>
<rect x="240" y="96" width="24" height="24" fill="rgb(180,211,255)"/>
<rect x="264" y="96" width="24" height="24" fill="rgb(180,211,255)"/>
<rect x="288" y="96" width="24" height="24" fill="rgb(67,145,255)"/>
<rect x="168" y="120" width="24" height="24" fill="rgb(209,227,255)" fill-opacity="0.8"/>
<rect x="192" y="120" width="24" height="24" fill="rgb(180,211,255)"/>
<rect x="216" y="120" width="24" height="24" fill="rgb(180,211,255)"/>
<rect x="240" y="120" width="24" height="24" fill="rgb(180,211,255)"/>
<rect x="264" y="120" width="24" height="24" fill="rgb(67,145,255)"/>
<rect x="288" y="120" width="24" height="24" fill="rgb(67,145,255)"/>
<rect x="312" y="120" width="24" height="24" fill="rgb(68,145,255)" fill-opacity="0.502"/>
<rect x="144" y="144" width="24" height="24" fill="rgb(209,227,255)" fill-opacity="0.8"/>
<rect x="168" y="144" width="24" height="24" fill="rgb(180,211,255)"/>
<rect x="192" y="144" width="24" height="24" fill="rgb(180,211,255)"/>
<rect x="216" y="144" width="24" height="24" fill="rgb(180,211,255)"/>
<rect x="240" y="144" width="24" height="24" fill="rgb(180,211,255)"/>
<rect x="264" y="144" width="24" height="24" fill="rgb(67,145,255)"/>
<rect x="288" y="144" width="24" height="24" fill="rgb(67,145,255)"/>
<rect x="312" y="144" width="24" height="24" fill="rgb(67,145,255)"/>
<rect x="336" y="144" width="24" height="24" fill="rgb(228,238,255)" fill-opacity="0.702"/>
<rect x="144" y="168" width="24" height="24" fill="rgb(180,211,255)"/>
<rect x="168" y="168" width="24" height="24" fill="rgb(180,211,255)"/>
<rect x="192" y="168" width="24" height="24" fill="rgb(180,211,255)"/>
<rect x="216" y="168" width="24" height="24" fill="rgb(180,211,255)"/>
<rect x="240" y="168" width="24" height="24" fill="rgb(67,145,255)"/>
<rect x="264" y="168" width="24" height="24" fill="rgb(67,145,255)"/>
<rect x="288" y="168" width="24" height="24" fill="rgb(67,145,255)"/>
<rect x="312" y="168" width="24" height="24" fill="rgb(67,145,255)"/>
<rect x="336" y="168" width="24" height="24" fill="rgb(67,146,255)" fill-opacity="0.749"/>
<rect x="120" y="192" width="24" height="24" fill="rgb(209,227,255)" fill-opacity="0.8"/>
<rect x="144" y="192" width="24" height="24" fill="rgb(180,211,255)"/>
<rect x="168" y="192" width="24" height="24" fill="rgb(180,211,255)"/>
<rect x="192" y="192" width="24" height="24" fill="rgb(180,211,255)"/>
<rect x="216" y="192" width="24" height="24" fill="rgb(67,145,255)"/>
<rect x="240" y="192" width="24" height="24" fill="rgb(67,145,255)"/>
<rect x="264" y="192" width="24" height="24" fill="rgb(67,145,255)"/>
<rect x="288" y="192" width="24" height="24" fill="rgb(67,145,255)"/>
<rect x="312" y="192" width="24" height="24" fill="rgb(67,145,255)"/>
<rect x="336" y="192" width="24" height="24" fill="rgb(67,145,255)"/>
<rect x="360" y="192" width="24" height="24" fill="rgb(228,238,255)" fill-opacity="0.702"/>
<rect x="120" y="216" width="24" height="24" fill="rgb(180,211,255)"/>
<rect x="144" y="216" width="24" height="24" fill="rgb(180,211,255)"/>
<rect x="168" y="216" width="24" height="24" fill="rgb(180,211,255)"/>
<rect x="192" y="216" width="24" height="24" fill="rgb(180,211,255)"/>
<rect x="216" y="216" width="24" height="24" fill="rgb(67,145,255)"/>
<rect x="240" y="216" width="24" height="24" fill="rgb(67,145,255)"/>
<rect x="264" y="216" width="24" height="24" fill="rgb(67,145,255)"/>
<rect x="288" y="216" width="24" height="24" fill="rgb(67,145,255)"/>
<rect x="312" y="216" width="24" height="24" fill="rgb(67,145,255)"/>
<rect x="336" y="216" width="24" height="24" fill="rgb(67,145,255)"/>
<rect x="360" y="216" width="24" height="24" fill="rgb(67,146,255)" fill-opacity="0.749"/>
<rect x="96" y="240" width="24" height="24" fill="rgb(209,227,255)" fill-opacity="0.8"/>
<rect x="120" y="240" width="24" height="24" fill="rgb(180,211,255)"/>
<rect x="144" y="240" width="24" height="24" fill="rgb(180,211,255)"/>
<rect x="168" y="240" width="24" height="24" fill="rgb(180,211,255)"/>
<rect x="192" y="240" width="24" height="24" fill="rgb(67,145,255)"/>
<rect x="216" y="240" width="24" height="24" fill="rgb(67,145,255)"/>
<rect x="240" y="240" width="24" height="24" fill="rgb(67,145,255)"/>
<rect x="264" y="240" width="24" height="24" fill="rgb(67,145,255)"/>
<rect x="288" y="240" width="24" height="24" fill="rgb(67,145,255)"/>
<rect x="312" y="240" width="24" height="24" fill="rgb(67,145,255)"/>
<rect x="336" y="240" width="24" height="24" fill="rgb(67,145,255)"/>
<rect x="360" y="240" width="24" height="24" fill="rgb(67,145,255)"/>
<rect x="384" y="240" width="24" height="24" fill="rgb(68,145,255)" fill-opacity="0.502"/>
<rect x="72" y="264" width="24" height="24" fill="rgb(209,227,255)" fill-opacity="0.8"/>
<rect x="96" y="264" width="24" height="24" fill="rgb(180,211,255)"/>
<rect x="120" y="264" width="24" height="24" fill="rgb(180,211,255)"/>
<rect x="144" y="264" width="24" height="24" fill="rgb(180,211,255)"/>
<rect x="168" y="264" width="24" height="24" fill="rgb(180,211,255)"/>
<rect x="192" y="264" width="24" height="24" fill="rgb(67,145,255)"/>
<rect x="216" y="264" width="24" height="24" fill="rgb(67,145,255)"/>
<rect x="240" y="264" width="24" height="24" fill="rgb(67,145,255)"/>
<rect x="264" y="264" width="24" height="24" fill="rgb(67,145,255)"/>
<rect x="288" y="264" width="24" height="24" fill="rgb(67,145,255)"/>
<rect x="312" y="264" width="24" height="24" fill="rgb(67,145,255)"/>
<rect x="336" y="264" width="24" height="24" fill="rgb(67,145,255)"/>
<rect x="360" y="264" width="24" height="24" fill="rgb(67,145,255)"/>
<rect x="384" y="264" width="24" height="24" fill="rgb(67,145,255)"/>
<rect x="72" y="288" width="24" height="24" fill="rgb(193,219,255)" fill-opacity="0.898"/>
<rect x="96" y="288" width="24" height="24" fill="rgb(180,211,255)"/>
<rect x="120" y="288" width="24" height="24" fill="rgb(180,211,255)"/>
<rect x="144" y="288" width="24" height="24" fill="rgb(180,211,255)"/>
<rect x="168" y="288" width="24" height="24" fill="rgb(67,145,255)"/>
<rect x="192" y="288" width="24" height="24" fill="rgb(67,145,255)"/>
<rect x="216" y="288" width="24" height="24" fill="rgb(67,145,255)"/>
<rect x="240" y="288" width="24" height="24" fill="rgb(67,145,255)"/>
<rect x="264" y="288" width="24" height="24" fill="rgb(67,145,255)"/>
<rect x="288" y="288" width="24" height="24" fill="rgb(67,145,255)"/>
<rect x="312" y="288" width="24" height="24" fill="rgb(67,145,255)"/>
<rect x="336" y="288" width="24" height="24" fill="rgb(67,145,255)"/>
<rect x="360" y="288" width="24" height="24" fill="rgb(67,145,255)"/>
<rect x="384" y="288" width="24" height="24" fill="rgb(67,145,255)"/>
<rect x="408" y="288" width="24" height="24" fill="rgb(67,146,255)" fill-opacity="0.749"/>
<rect x="48" y="312" width="24" height="24" fill="rgb(209,227,255)" fill-opacity="0.8"/>
<rect x="72" y="312" width="24" height="24" fill="rgb(180,211,255)"/>
<rect x="96" y="312" width="24" height="24" fill="rgb(180,211,255)"/>
<rect x="120" y="312" width="24" height="24" fill="rgb(180,211,255)"/>
<rect x="144" y="312" width="24" height="24" fill="rgb(180,211,255)"/>
<rect x="168" y="312" width="24" height="24" fill="rgb(67,145,255)"/>
<rect x="192" y="312" width="24" height="24" fill="rgb(67,145,255)"/>
<rect x="216" y="312" width="24" height="24" fill="rgb(67,145,255)"/>
<rect x="240" y="312" width="24" height="24" fill="rgb(67,145,255)"/>
<rect x="264" y="312" width="24" height="24" fill="rgb(67,145,255)"/>
<rect x="288" y="312" width="24" height="24" fill="rgb(67,145,255)"/>
<rect x="312" y="312" width="24" height="24" fill="rgb(67,145,255)"/>
<rect x="336" y="312" width="24" height="24" fill="rgb(67,145,255)"/>
<rect x="360" y="312" width="24" height="24" fill="rgb(67,145,255)"/>
<rect x="384" y="312" width="24" height="24" fill="rgb(67,145,255)"/>
<rect x="408" y="312" width="24" height="24" fill="rgb(67,145,255)"/>
<rect x="432" y="312" width="24" height="24" fill="rgb(228,238,255)" fill-opacity="0.702"/>
<rect x="48" y="336" width="24" height="24" fill="rgb(225,105,123)"/>
<rect x="72" y="336" width="24" height="24" fill="rgb(225,105,123)"/>
<rect x="96" y="336" width="24" height="24" fill="rgb(225,105,123)"/>
<rect x="120" y="336" width="24" height="24" fill="rgb(225,105,123)"/>
<rect x="144" y="336" width="24" height="24" fill="rgb(180,79,123)"/>
<rect x="168" y="336" width="24" height="24" fill="rgb(180,79,123)"/>
<rect x="192" y="336" width="24" height="24" fill="rgb(180,79,123)"/>
<rect x="216" y="336" width="24" height="24" fill="rgb(180,79,123)"/>
<rect x="240" y="336" width="24" height="24" fill="rgb(180,79,123)"/>
<rect x="264" y="336" width="24" height="24" fill="rgb(180,79,123)"/>
<rect x="288" y="336" width="24" height="24" fill="rgb(180,79,123)"/>
<rect x="312" y="336" width="24" height="24" fill="rgb(180,79,123)"/>
<rect x="336" y="336" width="24" height="24" fill="rgb(180,79,123)"/>
<rect x="360" y="336" width="24" height="24" fill="rgb(180,79,123)"/>
<rect x="384" y="336" width="24" height="24" fill="rgb(180,79,123)"/>
<rect x="408" y="336" width="24" height="24" fill="rgb(180,79,123)"/>
<rect x="432" y="336" width="24" height="24" fill="rgb(193,71,108)" fill-opacity="0.898"/>
<rect x="24" y="360" width="24" height="24" fill="rgb(239,101,111)" fill-opacity="0.922"/>
<rect x="48" y="360" width="24" height="24" fill="rgb(225,105,123)"/>
<rect x="72" y="360" width="24" height="24" fill="rgb(225,105,123)"/>
<rect x="96" y="360" width="24" height="24" fill="rgb(225,105,123)"/>
<rect x="120" y="360" width="24" height="24" fill="rgb(180,79,123)"/>
<rect x="144" y="360" width="24" height="24" fill="rgb(180,79,123)"/>
<rect x="168" y="360" width="24" height="24" fill="rgb(180,79,123)"/>
<rect x="192" y="360" width="24" height="24" fill="rgb(180,79,123)"/>
<rect x="216" y="360" width="24" height="24" fill="rgb(180,79,123)"/>
<rect x="240" y="360" width="24" height="24" fill="rgb(180,79,123)"/>
<rect x="264" y="360" width="24" height="24" fill="rgb(180,79,123)"/>
<rect x="288" y="360" width="24" height="24" fill="rgb(180,79,123)"/>
<rect x="312" y="360" width="24" height="24" fill="rgb(180,79,123)"/>
<rect x="336" y="360" width="24" height="24" fill="rgb(180,79,123)"/>
<rect x="360" y="360" width="24" height="24" fill="rgb(180,79,123)"/>
<rect x="384" y="360" width="24" height="24" fill="rgb(180,79,123)"/>
<rect x="408" y="360" width="24" height="24" fill="rgb(180,79,123)"/>
<rect x="432" y="360" width="24" height="24" fill="rgb(180,79,123)"/>
<rect x="456" y="360" width="24" height="24" fill="rgb(246,99,104)" fill-opacity="0.882"/>
<rect x="24" y="384" width="24" height="24" fill="rgb(225,105,123)"/>
<rect x="48" y="384" width="24" height="24" fill="rgb(225,105,123)"/>
<rect x="72" y="384" width="24" height="24" fill="rgb(225,105,123)"/>
<rect x="96" y="384" width="24" height="24" fill="rgb(225,105,123)"/>
<rect x="120" y="384" width="24" height="24" fill="rgb(180,79,123)"/>
<rect x="144" y="384" width="24" height="24" fill="rgb(180,79,123)"/>
<rect x="168" y="384" width="24" height="24" fill="rgb(180,79,123)"/>
<rect x="192" y="384" width="24" height="24" fill="rgb(180,79,123)"/>
<rect x="216" y="384" width="24" height="24" fill="rgb(180,79,123)"/>
<rect x="240" y="384" width="24" height="24" fill="rgb(180,79,123)"/>
<rect x="264" y="384" width="24" height="24" fill="rgb(180,79,123)"/>
<rect x="288" y="384" width="24" height="24" fill="rgb(180,79,123)"/>
<rect x="312" y="384" width="24" height="24" fill="rgb(180,79,123)"/>
<rect x="336" y="384" width="24" height="24" fill="rgb(180,79,123)"/>
<rect x="360" y="384" width="24" height="24" fill="rgb(180,79,123)"/>
<rect x="384" y="384" width="24" height="24" fill="rgb(180,79,123)"/>
<rect x="408" y="384" width="24" height="24" fill="rgb(180,79,123)"/>
<rect x="432" y="384" width="24" height="24" fill="rgb(180,79,123)"/>
<rect x="456" y="384" width="24" height="24" fill="rgb(193,71,108)" fill-opacity="0.898"/>
<rect x="0" y="408" width="24" height="24" fill="rgb(239,101,111)" fill-opacity="0.922"/>
<rect x="24" y="408" width="24" height="24" fill="rgb(225,105,123)"/>
<rect x="48" y="408" width="24" height="24" fill="rgb(225,105,123)"/>
<rect x="72" y="408" width="24" height="24" fill="rgb(225,105,123)"/>
<rect x="96" y="408" width="24" height="24" fill="rgb(180,79,123)"/>
<rect x="120" y="408" width="24" height="24" fill="rgb(180,79,123)"/>
<rect x="144" y="408" width="24" height="24" fill="rgb(180,79,123)"/>
<rect x="168" y="408" width="24" height="24" fill="rgb(180,79,123)"/>
<rect x="192" y="408" width="24" height="24" fill="rgb(180,79,123)"/>
<rect x="216" y="408" width="24" height="24" fill="rgb(180,79,123)"/>
<rect x="240" y="408" width="24" height="24" fill="rgb(180,79,123)"/>
<rect x="264" y="408" width="24" height="24" fill="rgb(180,79,123)"/>
<rect x="288" y="408" width="24" height="24" fill="rgb(180,79,123)"/>
<rect x="312" y="408" width="24" height="24" fill="rgb(180,79,123)"/>
<rect x="336" y="408" width="24" height="24" fill="rgb(180,79,123)"/>
<rect x="360" y="408" width="24" height="24" fill="rgb(180,79,123)"/>
<rect x="384" y="408" width="24" height="24" fill="rgb(180,79,123)"/>
<rect x="408" y="408" width="24" height="24" fill="rgb(180,79,123)"/>
<rect x="432" y="408" width="24" height="24" fill="rgb(180,79,123)"/>
<rect x="456" y="408" width="24" height="24" fill="rgb(180,79,123)"/>
<rect x="480" y="408" width="24" height="24" fill="rgb(209,62,90)" fill-opacity="0.8"/>
</svg>